<svg xmlns="http://www.w3.org/2000/svg" width="307" height="497" viewBox="0 0 307 497"><path fill="color(display-p3 1.000 1.000 1.000)" d="M367.707845,170.728851 L367.707845,79.3363342 C367.707845,71.8722432 365.071253,66.0103251 359.79807,61.7505798 C354.524887,57.4908346 348.317739,56.116272 341.176625,57.6268921 L215.421315,85.0621948 C197.756724,88.9099528 188.924428,98.3347982 188.924428,113.336731 L189.321157,383.569885 C190.384186,394.505351 185.965495,400.978892 176.065084,402.990509 L136.888143,411.134888 C111.75946,416.432231 93.0445556,425.475606 80.7434285,438.265015 C68.4423014,451.054423 62.2917378,467.123199 62.2917378,486.471344 C62.2917378,506.200958 69.0596465,522.257019 82.595464,534.639526 C96.1312815,547.022034 113.59433,553.213287 134.984609,553.213287 C145.12916,553.213287 155.622757,551.277328 166.465398,547.405411 C177.308039,543.533493 187.380112,537.555862 196.681615,529.472519 C205.983119,521.389175 213.526047,511.025279 219.310399,498.380829 C225.094752,485.736379 227.986928,470.723002 227.986928,453.340698 L227.986928,229.681183 C227.986928,223.989655 228.625254,220.291941 229.901906,218.588043 C231.178558,216.884145 234.463013,215.425659 239.755269,214.212585 L352.08666,189.665009 C356.811798,188.568919 360.596613,186.327784 363.441106,182.941605 C366.285599,179.555425 367.707845,175.484507 367.707845,170.728851 Z" transform="translate(-61.5 -57)"/></svg>